<?xml version="1.0" encoding="utf-8"?>
<!-- Generator: Adobe Illustrator 22.0.1, SVG Export Plug-In . SVG Version: 6.00 Build 0)  -->
<svg version="1.1" id="light" xmlns="http://www.w3.org/2000/svg" xmlns:xlink="http://www.w3.org/1999/xlink" x="0px" y="0px"
	 viewBox="0 0 512 512" style="enable-background:new 0 0 512 512;" xml:space="preserve">
<style type="text/css">
	.st0{fill:#987BD9;}
</style>
<g>
	<path class="st0" d="M418.1,104.5c-2.1,0-4.3,0-6.4-2.1C369.1,64,313.6,42.7,256,42.7c-55.5,0-110.9,19.2-153.6,57.6
		c-4.3,2.1-10.7,2.1-14.9-2.1s-2.1-10.7,2.1-14.9C134.4,42.7,194.1,21.3,256,21.3s123.7,23.5,170.7,64c4.3,4.3,4.3,10.7,0,14.9
		C424.5,102.4,422.4,104.5,418.1,104.5L418.1,104.5z"/>
</g>
<g>
	<path class="st0" d="M160,106.7H96c-6.4,0-10.7-4.3-10.7-10.7V32c0-6.4,4.3-10.7,10.7-10.7c6.4,0,10.7,4.3,10.7,10.7v53.3H160
		c6.4,0,10.7,4.3,10.7,10.7C170.7,102.4,166.4,106.7,160,106.7z"/>
</g>
<g>
	<path class="st0" d="M258.1,490.7c-61.9,0-123.7-23.5-170.7-64c-4.3-4.3-4.3-10.7,0-14.9c4.3-4.3,10.7-4.3,14.9,0
		c42.7,38.4,98.1,59.7,155.7,59.7c55.5,0,110.9-19.2,153.6-57.6c4.3-4.3,10.7-4.3,14.9,2.1c4.3,4.3,4.3,10.7-2.1,14.9
		C379.7,469.3,320,490.7,258.1,490.7L258.1,490.7z"/>
</g>
<g>
	<path class="st0" d="M418.1,490.7c-6.4,0-10.7-4.3-10.7-10.7v-53.3h-53.3c-6.4,0-10.7-4.3-10.7-10.7c0-6.4,4.3-10.7,10.7-10.7h64
		c6.4,0,10.7,4.3,10.7,10.7v64C428.8,486.4,424.5,490.7,418.1,490.7z"/>
</g>
<g>
	<path class="st0" d="M106.7,256c-29.9,0-53.3-23.5-53.3-53.3s23.5-53.3,53.3-53.3s53.3,23.5,53.3,53.3S136.5,256,106.7,256z
		 M106.7,170.7c-17.1,0-32,14.9-32,32s14.9,32,32,32s32-14.9,32-32S123.7,170.7,106.7,170.7z"/>
</g>
<g>
	<path class="st0" d="M202.7,362.7c-6.4,0-10.7-4.3-10.7-10.7v-21.3c0-17.1-14.9-32-32-32H53.3c-17.1,0-32,14.9-32,32V352
		c0,6.4-4.3,10.7-10.7,10.7S0,358.4,0,352v-21.3c0-29.9,23.5-53.3,53.3-53.3H160c29.9,0,53.3,23.5,53.3,53.3V352
		C213.3,358.4,209.1,362.7,202.7,362.7z"/>
</g>
<g>
	<path class="st0" d="M405.3,256c-29.9,0-53.3-23.5-53.3-53.3s23.5-53.3,53.3-53.3s53.3,23.5,53.3,53.3S435.2,256,405.3,256z
		 M405.3,170.7c-17.1,0-32,14.9-32,32s14.9,32,32,32s32-14.9,32-32S422.4,170.7,405.3,170.7z"/>
</g>
<g>
	<path class="st0" d="M501.3,362.7c-6.4,0-10.7-4.3-10.7-10.7v-21.3c0-17.1-14.9-32-32-32H352c-17.1,0-32,14.9-32,32V352
		c0,6.4-4.3,10.7-10.7,10.7s-10.7-4.3-10.7-10.7v-21.3c0-29.9,23.5-53.3,53.3-53.3h106.7c29.9,0,53.3,23.5,53.3,53.3V352
		C512,358.4,507.7,362.7,501.3,362.7z"/>
</g>
</svg>
